<?xml version="1.0" encoding="UTF-8" standalone="no"?>
<!-- Generator: Adobe Illustrator 18.0.0, SVG Export Plug-In . SVG Version: 6.00 Build 0)  -->

<svg
   xmlns:dc="http://purl.org/dc/elements/1.1/"
   xmlns:cc="http://creativecommons.org/ns#"
   xmlns:rdf="http://www.w3.org/1999/02/22-rdf-syntax-ns#"
   xmlns:svg="http://www.w3.org/2000/svg"
   xmlns="http://www.w3.org/2000/svg"
   xmlns:sodipodi="http://sodipodi.sourceforge.net/DTD/sodipodi-0.dtd"
   xmlns:inkscape="http://www.inkscape.org/namespaces/inkscape"
   version="1.1"
   id="Layer_1"
   x="0px"
   y="0px"
   viewBox="0 0 42 42"
   enable-background="new 0 0 42 42"
   xml:space="preserve"
   sodipodi:docname="CS.svg"
   inkscape:version="0.92.2 (5c3e80d, 2017-08-06)"
   inkscape:export-filename="G:\My Drive\MCOL-1179\kettle-columnstore-bulk-exporter-plugin\src\main\resources\com\mariadb\columnstore\api\kettle\resources\CS.png"
   inkscape:export-xdpi="73.14286"
   inkscape:export-ydpi="73.14286"><metadata
     id="metadata3755"><rdf:RDF><cc:Work
         rdf:about=""><dc:format>image/svg+xml</dc:format><dc:type
           rdf:resource="http://purl.org/dc/dcmitype/StillImage" /><dc:title /></cc:Work></rdf:RDF></metadata><defs
     id="defs3753" /><sodipodi:namedview
     pagecolor="#ffffff"
     bordercolor="#666666"
     borderopacity="1"
     objecttolerance="10"
     gridtolerance="10"
     guidetolerance="10"
     inkscape:pageopacity="0"
     inkscape:pageshadow="2"
     inkscape:window-width="1429"
     inkscape:window-height="1173"
     id="namedview3751"
     showgrid="false"
     inkscape:zoom="20.37141"
     inkscape:cx="14.897763"
     inkscape:cy="19.827235"
     inkscape:window-x="2559"
     inkscape:window-y="96"
     inkscape:window-maximized="0"
     inkscape:current-layer="Layer_1" /><polygon
     points="10.1,5.3 10.1,8.4 4.8,3.2 3.5,4.5 8.7,9.7 5.6,9.7 5.6,11.6 12,11.6 12,5.3 "
     id="polygon3730"
     transform="translate(-0.68723766,-2.8471275)"
     style="fill:#3d6480" /><rect
     x="24.9"
     y="27.4"
     fill="#FFEBCD"
     width="0"
     height="0"
     id="rect3742" /><g
     id="g3826"
     transform="translate(9.3200554,8.9396464)"><g
       id="g3766"
       style="fill:#3d6480;fill-opacity:1"
       transform="translate(-2.307155,-1.4726521)"><g
         id="data"
         style="fill:#3d6480;fill-opacity:1"><path
           id="path3757"
           d="M 16,0 C 9.256,0 2,2.033 2,6.5 v 19 c 0,4.465 7.256,6.5 14,6.5 6.743,0 14,-2.035 14,-6.5 V 6.5 C 30,2.033 22.742,0 16,0 Z M 28,25.5 C 28,27.984 22.627,30 16,30 9.372,30 4,27.984 4,25.5 V 21.764 C 6.066,23.893 11.05,25 16,25 c 4.95,0 9.934,-1.107 12,-3.236 z m 0,-6 H 27.996 C 27.996,19.51 28,19.521 28,19.531 28,22 22.627,24 16,24 9.373,24 4,22 4,19.531 4,19.521 4.004,19.51 4.004,19.5 H 4 V 15.764 C 6.066,17.893 11.05,19 16,19 c 4.95,0 9.934,-1.107 12,-3.236 z m 0,-6 H 27.996 C 27.996,13.51 28,13.521 28,13.531 28,16 22.627,18 16,18 9.373,18 4,16 4,13.531 4,13.521 4.004,13.51 4.004,13.5 H 4 V 10.064 C 6.621,12.061 11.425,13 16,13 c 4.575,0 9.379,-0.939 12,-2.936 z M 16,11 C 9.372,11 4,8.984 4,6.5 4,4.014 9.372,2 16,2 22.627,2 28,4.014 28,6.5 28,8.984 22.627,11 16,11 Z"
           style="fill:#3d6480;fill-opacity:1"
           inkscape:connector-curvature="0" /><circle
           id="circle3759"
           r="1"
           cy="26"
           cx="25"
           style="fill:#3d6480;fill-opacity:1" /><circle
           id="circle3761"
           r="1"
           cy="20"
           cx="25"
           style="fill:#3d6480;fill-opacity:1" /><circle
           id="circle3763"
           r="1"
           cy="14"
           cx="25"
           style="fill:#3d6480;fill-opacity:1" /></g></g><g
       id="g3768" /><g
       id="g3770" /><g
       id="g3772" /><g
       id="g3774" /><g
       id="g3776" /><g
       id="g3778" /><g
       id="g3780" /><g
       id="g3782" /><g
       id="g3784" /><g
       id="g3786" /><g
       id="g3788" /><g
       id="g3790" /><g
       id="g3792" /><g
       id="g3794" /><g
       id="g3796" /></g></svg>